<svg width="100" height="28" viewBox="0 0 100 28" fill="none" xmlns="http://www.w3.org/2000/svg">
<path d="M4.74782 7.64838C4.81072 7.61435 4.87361 7.58518 4.9365 7.55601C4.24469 6.73435 4.21566 6.35998 4.34145 6.19954C4.76718 5.63556 5.99599 5.06672 7.79083 5.06672C8.80193 5.06672 9.85658 5.25633 10.8387 5.61611C12.44 6.19954 13.4559 6.62739 14.1284 6.90938C14.796 7.19137 15.2024 7.36153 15.6088 7.44418C15.9377 7.51225 16.228 7.54628 16.4989 7.54628C16.6683 7.54628 16.8182 7.5317 16.9585 7.50739C16.8763 7.3275 16.794 7.14275 16.7021 6.94827C16.5667 6.66142 16.4215 6.38429 16.257 6.11202C16.1458 6.1023 16.0248 6.08285 15.8942 6.05368C15.6136 5.99534 15.2556 5.84462 14.6654 5.59666C13.9784 5.30981 12.9431 4.87224 11.3128 4.27909C10.1759 3.86583 8.96158 3.64704 7.79566 3.64704C5.76861 3.64704 4.02699 4.29367 3.24326 5.33412C2.51274 6.3065 3.04491 7.40529 3.68834 8.24154C4.02215 8.02761 4.38015 7.82341 4.74782 7.64838Z" fill="#2C2C2C"/>
<path d="M19.0678 6.01482C19.45 5.68421 19.8903 5.36819 20.2096 5.36819C20.2773 5.36819 20.3305 5.38763 20.3837 5.42653C21.3126 6.15095 22.0479 8.93196 20.9594 12.0533C20.3886 13.6869 19.9725 14.7225 19.6967 15.408C19.421 16.0935 19.2565 16.5068 19.1694 16.9201C19.0581 17.4792 19.0485 17.9216 19.1065 18.2911C19.2807 18.2085 19.4645 18.1161 19.658 18.0237C19.9483 17.8827 20.2192 17.732 20.4756 17.5716C20.4853 17.4646 20.5047 17.343 20.5337 17.2069C20.5917 16.9249 20.7369 16.5554 20.9836 15.9477C21.2642 15.2524 21.6899 14.1974 22.2705 12.5298C23.5283 8.93196 22.7059 5.4557 21.2303 4.29857C20.9304 4.0652 20.5869 3.94365 20.2096 3.94365C19.5613 3.94365 18.9275 4.31316 18.3954 4.73614C18.6082 5.09106 18.8066 5.4557 18.9807 5.83007C19.0146 5.89813 19.0388 5.95648 19.0678 6.01482Z" fill="#2C2C2C"/>
<path d="M20.7465 20.3623C20.6788 20.3963 20.6208 20.4255 20.5579 20.4547C21.2497 21.2763 21.2787 21.6458 21.1529 21.8111C20.7272 22.3751 19.4984 22.944 17.7035 22.944C16.6973 22.944 15.6426 22.7543 14.6557 22.3946C13.0544 21.8111 12.0384 21.3833 11.366 21.1062C10.6984 20.8242 10.292 20.654 9.8856 20.5665C9.57114 20.4984 9.29055 20.4692 9.02446 20.4692C8.84546 20.4692 8.68582 20.4887 8.54068 20.513C8.62292 20.688 8.70517 20.8728 8.79709 21.0624C8.93255 21.3492 9.08736 21.6264 9.24701 21.8986C9.35828 21.9084 9.47438 21.9278 9.60017 21.9521C9.88076 22.0105 10.2388 22.1612 10.8338 22.414C11.516 22.7009 12.5512 23.1336 14.1864 23.7316C15.3185 24.1448 16.5376 24.3636 17.7035 24.3636C19.4597 24.3636 21.4722 23.717 22.256 22.6765C22.9865 21.7042 22.4495 20.6054 21.8109 19.7691C21.4722 19.9831 21.1191 20.1824 20.7465 20.3623Z" fill="#2C2C2C"/>
<path d="M6.41204 21.9618C6.00566 22.3313 5.58961 22.6765 5.3332 22.6765C5.30417 22.6765 5.23644 22.6765 5.11066 22.5793C4.18663 21.8549 3.44644 19.0739 4.53496 15.9525C5.10582 14.3189 5.52188 13.2833 5.79763 12.5978C6.07339 11.9171 6.24271 11.5039 6.32496 11.0906C6.43623 10.5315 6.4459 10.0891 6.38785 9.71956C6.21369 9.80221 6.02985 9.88973 5.83634 9.98697C5.54607 10.128 5.27515 10.2835 5.01874 10.444C5.00907 10.5509 4.98971 10.6725 4.96069 10.8038C4.90263 11.0858 4.7575 11.4553 4.51077 12.0581C4.23017 12.7582 3.80444 13.8133 3.21907 15.4809C1.96607 19.0836 2.78366 22.5598 4.2592 23.7121C4.58817 23.9698 4.95101 24.1011 5.32836 24.1011C5.98147 24.1011 6.53298 23.7267 7.0845 23.2502C6.87647 22.905 6.68296 22.5452 6.50879 22.1757C6.47493 22.098 6.4459 22.0347 6.41204 21.9618Z" fill="#2C2C2C"/>
<path d="M2.76431 15.0579C1.71449 14.9947 1.44358 14.8829 1.40487 14.5572C1.25006 13.3757 2.65304 10.8816 5.5896 9.45703C7.1232 8.71316 8.13914 8.28045 8.8116 7.99846C9.47923 7.71647 9.88077 7.54144 10.2291 7.31293C10.6984 6.99691 11.0177 6.68574 11.2305 6.37945C11.0467 6.31138 10.8532 6.23845 10.65 6.16552C10.3597 6.05856 10.0646 5.97105 9.7695 5.89812C9.68241 5.97105 9.58566 6.04397 9.46471 6.12176C9.22766 6.28221 8.86966 6.43293 8.2746 6.68574C7.59247 6.97746 6.55717 7.41503 4.98971 8.17349C1.6129 9.81194 -0.220641 12.8604 0.0212509 14.7419C0.195413 16.0741 1.30812 16.3609 2.34825 16.4533C2.44017 16.0595 2.55144 15.6657 2.6869 15.2816C2.71593 15.2038 2.74012 15.1309 2.76431 15.0579Z" fill="#2C2C2C"/>
<path d="M11.695 3.79778C11.7772 2.72816 12.0094 2.44617 12.2126 2.417C12.2658 2.41214 12.3239 2.40727 12.3868 2.40727C13.7462 2.40727 15.9813 4.04573 17.2149 6.69547C17.9454 8.26586 18.3663 9.29658 18.6469 9.98211C18.9275 10.6628 19.092 11.076 19.3194 11.4261C19.6242 11.9026 19.929 12.2234 20.2192 12.4374C20.287 12.2526 20.3547 12.063 20.4224 11.8588C20.5337 11.5476 20.6208 11.2413 20.6933 10.9399C20.6256 10.8573 20.5579 10.76 20.4853 10.6482C20.3305 10.4051 20.1805 10.0405 19.9338 9.43758C19.6484 8.73747 19.2178 7.6873 18.4728 6.08773C16.9295 2.77192 14.1864 0.9876 12.3868 0.9876C12.2658 0.9876 12.1449 0.992462 12.0336 1.01191C10.8483 1.17235 10.4613 2.32948 10.3355 3.37965C10.7274 3.47689 11.1193 3.58872 11.4966 3.72971C11.5643 3.74916 11.6321 3.77347 11.695 3.79778Z" fill="#2C2C2C"/>
<path d="M25.4731 13.2639C25.3135 12.0484 24.1863 11.6595 23.151 11.5282C23.059 11.9317 22.9478 12.3304 22.8075 12.7291C22.7833 12.7923 22.7639 12.8555 22.7397 12.9187C23.7847 13.0014 24.0605 13.2396 24.0895 13.4487C24.2395 14.6301 22.8365 17.1291 19.8999 18.5537C18.3663 19.2975 17.3504 19.7302 16.6779 20.0122C16.0103 20.2991 15.6088 20.4692 15.2604 20.7026C14.7863 21.0186 14.4719 21.3298 14.259 21.6361C14.4429 21.7042 14.6364 21.7771 14.8396 21.85C15.1298 21.957 15.4201 22.0445 15.72 22.1174C15.8071 22.0445 15.9039 21.9716 16.02 21.8938C16.257 21.7333 16.615 21.5826 17.2101 21.3298C17.8922 21.0381 18.9227 20.6005 20.4902 19.8421C23.8863 18.1939 25.715 15.1455 25.4731 13.2639Z" fill="#2C2C2C"/>
<path d="M13.7994 24.208C13.7172 25.2776 13.4801 25.5596 13.2818 25.5888C13.2286 25.5937 13.1705 25.5985 13.1124 25.5985C11.7482 25.5985 9.51793 23.9601 8.28428 21.3152C7.55377 19.7497 7.13288 18.7141 6.85228 18.0285C6.57169 17.3479 6.4072 16.9346 6.17982 16.5797C5.8702 16.1032 5.56542 15.7872 5.27515 15.5781C5.21226 15.758 5.14453 15.9477 5.07196 16.147C4.96069 16.463 4.87845 16.7693 4.81072 17.0708C4.87361 17.1534 4.94134 17.2458 5.01391 17.3625C5.16872 17.6056 5.31869 17.9702 5.56542 18.5779C5.85085 19.2732 6.28142 20.3282 7.02161 21.9278C8.56488 25.2387 11.3079 27.0231 13.1076 27.0231C13.2286 27.0231 13.3495 27.0133 13.4608 26.9987C14.6509 26.8383 15.0331 25.6812 15.1589 24.631C14.767 24.5338 14.3751 24.4219 13.9978 24.2809C13.93 24.2566 13.8672 24.2323 13.7994 24.208Z" fill="#2C2C2C"/>
<path d="M64.9305 12.097C65.3079 12.097 65.6272 11.7713 65.6272 11.3823V8.84928H66.1255C66.9092 9.79249 67.6107 10.7114 68.3315 11.7227C68.496 11.9658 68.7089 12.097 68.9411 12.097C69.3959 12.097 69.6377 11.7518 69.6377 11.4261C69.6377 11.2754 69.5797 11.1101 69.4878 10.9934C68.8685 10.1328 68.1961 9.25768 67.3108 8.17348L69.4539 5.45081C69.5555 5.3244 69.6232 5.14451 69.6232 4.98407C69.6232 4.65346 69.362 4.29854 68.9411 4.29854C68.6992 4.29854 68.5009 4.41037 68.3364 4.63888L66.1061 7.51712H65.6272V4.98407C65.6272 4.60484 65.3127 4.29854 64.9305 4.29854C64.5483 4.29854 64.2484 4.59998 64.2484 4.98407V11.3823C64.2436 11.7761 64.5532 12.097 64.9305 12.097Z" fill="#2C2C2C"/>
<path d="M41.9314 4.29854C41.3074 4.29854 40.6833 4.48816 40.1076 4.84794C40.064 4.77987 40.0108 4.71667 39.9528 4.65346L39.9334 4.63888C39.677 4.42982 39.3577 4.29854 39.0965 4.29854C38.6804 4.29854 38.3998 4.55622 38.3998 4.94031C38.3998 5.10562 38.4579 5.33413 38.7433 5.5043L38.7675 5.51888C38.9465 5.60153 39.0384 5.64043 39.0384 6.22872V13.9008C39.0384 14.2897 39.3529 14.6009 39.7351 14.6009C40.1269 14.6009 40.4317 14.2946 40.4317 13.9008V11.6546C40.9107 11.9171 41.4622 12.0679 41.9992 12.0679C42.9522 12.0679 43.6731 11.7372 44.1423 11.0906C44.5536 10.5266 44.7616 9.72928 44.7616 8.71801V7.34209C44.7616 6.35513 44.5487 5.62584 44.1036 5.11534C43.6392 4.57567 42.9038 4.29854 41.9314 4.29854ZM43.3683 7.3032V8.80552C43.3683 10.5509 42.5217 10.7503 41.8879 10.7503C41.6895 10.7503 41.0074 10.7065 40.4365 10.1474V6.15093C40.8816 5.78628 41.3896 5.57722 41.8444 5.57722C42.9426 5.58695 43.3683 6.06828 43.3683 7.3032Z" fill="#2C2C2C"/>
<path d="M37.1613 10.9545C36.1067 9.50078 34.9311 8.00331 33.6732 6.49612L37.1371 2.0718C37.2387 1.94539 37.2919 1.79467 37.2919 1.61964C37.2919 1.27444 37.0259 0.919525 36.5808 0.919525C36.2663 0.919525 36.0922 1.09455 35.9906 1.23069L32.4589 5.83004H31.2398V1.61964C31.2398 1.24041 30.9157 0.919525 30.5286 0.919525C30.1513 0.919525 29.832 1.24041 29.832 1.61964V11.3823C29.832 11.7859 30.1465 12.1116 30.5286 12.1116C30.9205 12.1116 31.2398 11.7859 31.2398 11.3823V7.2011H32.4928C33.2378 8.12 34.9069 10.2106 35.9519 11.7567C36.0486 11.9074 36.2179 12.1116 36.5663 12.1116C37.0452 12.1116 37.3065 11.7518 37.3065 11.4115C37.3065 11.2559 37.2581 11.1003 37.1662 10.9593L37.1613 10.9545Z" fill="#2C2C2C"/>
<path d="M51.283 17.1923C50.8911 17.1923 50.5863 17.4937 50.5863 17.8778V18.33L47.4514 21.8889V17.8778C47.4514 17.4986 47.137 17.1923 46.7548 17.1923C46.3629 17.1923 46.0436 17.4986 46.0436 17.8778V24.2761C46.0436 24.6796 46.3581 24.9908 46.7548 24.9908C47.1466 24.9908 47.4514 24.6747 47.4514 24.2761V23.8239L50.5863 20.2796V24.2761C50.5863 24.6796 50.8911 24.9908 51.283 24.9908C51.67 24.9908 51.9796 24.6699 51.9796 24.2761V17.8827C51.9796 17.5034 51.6652 17.1923 51.283 17.1923Z" fill="#2C2C2C"/>
<path d="M36.484 23.5322H36.0293V17.9362C36.0293 17.5618 35.71 17.2506 35.3326 17.2506H31.5156C31.1527 17.2506 30.848 17.5521 30.848 17.907V19.9393C30.848 21.5875 30.7657 22.7154 30.3497 23.5322H29.803C29.4401 23.5322 29.1644 23.8142 29.1644 24.1886V26.5223C29.1644 26.9015 29.4595 27.1932 29.832 27.1932C30.1997 27.1932 30.4851 26.8967 30.4851 26.5223V24.8595H35.8116V26.5223C35.8116 26.9015 36.097 27.1932 36.4647 27.1932C36.842 27.1932 37.1323 26.8967 37.1323 26.5223V24.1886C37.1371 23.8288 36.842 23.5322 36.484 23.5322ZM34.6311 18.5828V23.5371H31.7865C32.0816 22.7106 32.2219 21.5534 32.2219 19.9441V18.5828H34.6311Z" fill="#2C2C2C"/>
<path d="M43.0974 20.9116C43.4554 20.5859 43.6537 20.1192 43.6537 19.5698V19.3267C43.6537 18.0383 42.749 17.236 41.288 17.236H39.2948C38.9078 17.236 38.5982 17.5521 38.5982 17.9362V24.1642C38.5982 24.5581 38.903 24.8644 39.2948 24.8644H41.4622C42.304 24.8644 42.9426 24.665 43.3586 24.2664C43.7456 23.9017 43.9391 23.3863 43.9391 22.73V22.4723C43.9391 21.816 43.6392 21.2617 43.0974 20.9116ZM39.9818 20.3866V18.539H41.1622C42.1298 18.539 42.2604 18.9523 42.2604 19.3558V19.5989C42.2604 19.7934 42.2604 20.3866 41.051 20.3866H39.9818ZM42.5555 22.4772V22.7203C42.5555 23.153 42.4684 23.5808 41.4283 23.5808H39.977V21.6458H41.3025C41.8782 21.6458 42.5555 21.7868 42.5555 22.4772Z" fill="#2C2C2C"/>
<path d="M76.9138 17.1777C76.522 17.1777 76.2172 17.484 76.2172 17.8778V20.2407H73.4983V17.8778C73.4983 17.484 73.1936 17.1777 72.8017 17.1777C72.4147 17.1777 72.105 17.4937 72.105 17.8778V24.2615C72.105 24.6505 72.4195 24.9616 72.8017 24.9616C73.1936 24.9616 73.4983 24.6553 73.4983 24.2615V21.5145H76.2172V24.2615C76.2172 24.6553 76.522 24.9616 76.9138 24.9616C77.3009 24.9616 77.6105 24.6456 77.6105 24.2615V17.8827C77.6105 17.4937 77.3009 17.1777 76.9138 17.1777Z" fill="#2C2C2C"/>
<path d="M51.8248 4.29855C51.52 4.29855 51.2733 4.47844 51.1814 4.76529L49.4204 9.93835C48.6464 7.90122 48.0368 6.20442 47.5675 4.76043C47.4708 4.47358 47.2289 4.29369 46.9386 4.29369C46.5371 4.29369 46.2274 4.58054 46.2274 4.95005C46.2274 5.01325 46.242 5.07159 46.2565 5.12021L46.271 5.16883C46.8177 6.88994 47.6401 9.11183 48.7141 11.781C48.0997 12.9625 47.4998 13.2104 46.7886 13.2104H46.779C46.3532 13.2299 46.121 13.5896 46.121 13.9105C46.121 14.2509 46.3629 14.5961 46.8177 14.5961C48.9366 14.5961 49.8558 12.7923 50.5331 10.8427L52.4924 5.22231L52.5118 5.14938C52.5263 5.08618 52.536 5.02784 52.536 4.96949C52.536 4.5854 52.2312 4.29855 51.8248 4.29855Z" fill="#2C2C2C"/>
<path d="M85.2107 17.1923C84.8189 17.1923 84.5141 17.4937 84.5141 17.8778V18.33L81.3792 21.8889V17.8778C81.3792 17.4986 81.0647 17.1923 80.6825 17.1923C80.2907 17.1923 79.9714 17.4986 79.9714 17.8778V24.2761C79.9714 24.6796 80.2858 24.9908 80.6825 24.9908C81.0744 24.9908 81.3792 24.6747 81.3792 24.2761V23.8239L84.5141 20.2796V24.2761C84.5141 24.6796 84.8189 24.9908 85.2107 24.9908C85.5978 24.9908 85.9074 24.6699 85.9074 24.2761V17.8827C85.9074 17.5034 85.5978 17.1923 85.2107 17.1923Z" fill="#2C2C2C"/>
<path d="M99.3517 5.26121C98.8486 4.61944 98.0697 4.29369 97.0489 4.29369C95.2009 4.29369 94.1027 5.49458 94.1027 7.49768V8.82984C94.1027 9.7536 94.3301 10.5315 94.7655 11.0809C95.2735 11.7324 96.0427 12.063 97.0393 12.063C97.9971 12.063 98.776 11.8685 99.4243 11.4747C99.5791 11.3921 99.6904 11.2559 99.7388 11.0955C99.7871 10.9399 99.7678 10.7746 99.6952 10.6287C99.6227 10.4683 99.492 10.3468 99.3324 10.2933C99.1679 10.2349 98.9937 10.2495 98.8341 10.337L98.8244 10.3419C98.3455 10.6336 97.8036 10.7649 97.0683 10.7649C96.0185 10.7649 95.4863 10.1328 95.4863 8.88818V8.70343H99.3759C99.7339 8.70343 100 8.43117 100 8.07625V7.48796C99.9952 6.55447 99.7775 5.80574 99.3517 5.26121ZM98.6164 7.40531V7.44906H95.4815V7.41989C95.4815 6.16552 95.9943 5.55778 97.0489 5.55778C98.1326 5.55778 98.6164 6.12663 98.6164 7.40531Z" fill="#2C2C2C"/>
<path d="M83.7933 11.3872C84.1803 11.0225 84.3738 10.5072 84.3738 9.85081V9.59313C84.3738 8.93192 84.0739 8.38252 83.532 8.03247C83.89 7.70672 84.0884 7.23998 84.0884 6.69058V6.44749C84.0884 5.15908 83.1837 4.35687 81.7227 4.35687H79.7295C79.3425 4.35687 79.0328 4.67289 79.0328 5.05698V11.2851C79.0328 11.6789 79.3376 11.9852 79.7295 11.9852H81.892C82.7338 11.9852 83.3724 11.781 83.7933 11.3872ZM80.4116 7.50252V5.655H81.592C82.5596 5.655 82.6902 6.06826 82.6902 6.4718V6.71489C82.6902 6.90937 82.6902 7.50252 81.4808 7.50252H80.4116ZM82.9902 9.59313V9.83623C82.9902 10.2689 82.9031 10.6968 81.863 10.6968H80.4116V8.76175H81.7372C82.3081 8.76175 82.9902 8.90761 82.9902 9.59313Z" fill="#2C2C2C"/>
<path d="M90.9726 17.1777C89.1245 17.1777 88.0264 18.3786 88.0264 20.3817V21.7139C88.0264 22.6376 88.2537 23.4155 88.6891 23.9649C89.1971 24.6164 89.9663 24.947 90.9629 24.947C91.9208 24.947 92.6997 24.7526 93.348 24.3587C93.5028 24.2761 93.6141 24.14 93.6624 23.9795C93.7108 23.8239 93.6915 23.6586 93.6189 23.5128C93.5463 23.3523 93.4157 23.2308 93.2561 23.1773C93.0916 23.119 92.9174 23.1335 92.7578 23.2211L92.7481 23.2259C92.2691 23.5176 91.7273 23.6489 90.992 23.6489C89.9421 23.6489 89.41 23.0169 89.41 21.7722V21.5875H93.2996C93.6576 21.5875 93.9237 21.3152 93.9237 20.9603V20.372C93.9237 19.4385 93.706 18.6898 93.2754 18.1452C92.7674 17.5035 91.9934 17.1777 90.9726 17.1777ZM92.5401 20.2845V20.3282H89.4051V20.2991C89.4051 19.0447 89.918 18.437 90.9726 18.437C92.0563 18.437 92.5401 19.0058 92.5401 20.2845Z" fill="#2C2C2C"/>
<path d="M91.5435 11.1246C91.9982 10.5801 92.2401 9.81193 92.2401 8.90762V7.46363C92.2401 6.54959 91.9982 5.78141 91.5435 5.24174C91.021 4.61942 90.2421 4.3034 89.2358 4.3034C88.2296 4.3034 87.4507 4.61942 86.9282 5.24174C86.4734 5.78628 86.2315 6.55446 86.2315 7.46363V8.90762C86.2315 9.81679 86.4734 10.5801 86.9282 11.1246C87.4555 11.7518 88.2296 12.0678 89.2358 12.0678C90.2421 12.0678 91.021 11.7518 91.5435 11.1246ZM87.6103 8.90762V7.46363C87.6103 6.23843 88.1425 5.64528 89.2358 5.64528C90.3292 5.64528 90.8613 6.23843 90.8613 7.46363V8.90762C90.8613 10.1328 90.3292 10.726 89.2358 10.726C88.1425 10.726 87.6103 10.128 87.6103 8.90762Z" fill="#2C2C2C"/>
<path d="M62.9277 17.8973C62.9277 17.5667 62.6519 17.2117 62.2455 17.2117C61.9891 17.2117 61.7859 17.3284 61.6214 17.5715L59.4057 20.4352H58.9123V17.9167C58.9123 17.5326 58.6123 17.2312 58.2301 17.2312C57.8237 17.2312 57.5335 17.518 57.5335 17.9167V20.4352H57.0545L54.8388 17.5715C54.7227 17.4208 54.5388 17.2166 54.2195 17.2166C53.7987 17.2166 53.5374 17.5715 53.5374 17.9021C53.5374 18.082 53.6051 18.2522 53.7261 18.3786L55.8499 21.0915C54.9646 22.1806 54.2873 23.0557 53.6729 23.9163L53.668 23.926C53.6003 24.0281 53.5277 24.1934 53.5277 24.349C53.5277 24.6845 53.7696 25.0199 54.2244 25.0199C54.4614 25.0199 54.6598 24.9033 54.834 24.6602C55.6032 23.5808 56.3047 22.6619 57.0448 21.7722H57.5431V24.3052C57.5431 24.7088 57.8479 25.0199 58.2398 25.0199C58.6171 25.0199 58.9219 24.6991 58.9219 24.3052V21.7722H59.4202C60.1169 22.6182 60.828 23.5371 61.6408 24.6602C61.7908 24.8935 62.0085 25.0248 62.2552 25.0248C62.7051 25.0248 62.9373 24.6845 62.9373 24.3539C62.9373 24.2031 62.8696 24.0427 62.8261 23.96L62.8164 23.9406L62.8067 23.926C62.0859 22.9196 61.3022 21.9472 60.6152 21.1013L62.7583 18.3786C62.8116 18.2814 62.9277 18.1112 62.9277 17.8973Z" fill="#2C2C2C"/>
<path d="M54.6066 11.7664C55.3758 10.6871 56.0773 9.76817 56.8175 8.87844H57.3158V11.4115C57.3158 11.815 57.6205 12.1262 58.0124 12.1262C58.3898 12.1262 58.6945 11.8053 58.6945 11.4115V8.87844H59.1928C59.8895 9.72441 60.6007 10.6433 61.4134 11.7664C61.5634 11.9998 61.7811 12.1311 62.0278 12.1311C62.4777 12.1311 62.7099 11.7907 62.7099 11.4601C62.7099 11.3094 62.6422 11.149 62.5987 11.0663L62.589 11.0469L62.5793 11.0323C61.8585 10.0259 61.0748 9.05347 60.3878 8.2075L62.5309 5.48484C62.5987 5.40219 62.7148 5.23202 62.7148 5.0181C62.7148 4.68749 62.439 4.33257 62.0326 4.33257C61.7762 4.33257 61.5731 4.44925 61.4086 4.69235L59.1928 7.55601H58.6994V5.02782C58.6994 4.64373 58.3994 4.34229 58.0172 4.34229C57.6109 4.34229 57.3206 4.62914 57.3206 5.02782V7.54628H56.8417L54.6259 4.68263C54.5147 4.53191 54.326 4.32771 54.0067 4.32771C53.5858 4.32771 53.3245 4.68263 53.3245 5.01323C53.3245 5.19312 53.3923 5.36329 53.5132 5.4897L55.637 8.20264C54.7517 9.29171 54.0744 10.1668 53.46 11.0274L53.4552 11.0371C53.3874 11.1392 53.3149 11.3045 53.3149 11.4601C53.3149 11.7956 53.5568 12.1311 54.0115 12.1311C54.2341 12.1262 54.4324 12.0095 54.6066 11.7664Z" fill="#2C2C2C"/>
<path d="M67.1656 17.1777C65.3176 17.1777 64.2194 18.3786 64.2194 20.3817V21.7139C64.2194 22.6376 64.4467 23.4155 64.8822 23.9649C65.3901 24.6164 66.1593 24.947 67.1559 24.947C68.1138 24.947 68.8927 24.7526 69.541 24.3587C69.6958 24.2761 69.8071 24.14 69.8554 23.9795C69.9038 23.8239 69.8845 23.6586 69.8119 23.5128C69.7393 23.3523 69.6087 23.2308 69.4491 23.1773C69.2846 23.119 69.1104 23.1335 68.9508 23.2211L68.9411 23.2259C68.4622 23.5176 67.9203 23.6489 67.185 23.6489C66.1351 23.6489 65.603 23.0169 65.603 21.7722V21.5875H69.4926C69.8506 21.5875 70.1167 21.3152 70.1167 20.9603V20.372C70.1167 19.4385 69.899 18.6898 69.4684 18.1452C68.9604 17.5035 68.1864 17.1777 67.1656 17.1777ZM65.5982 20.3282V20.2991C65.5982 19.0447 66.111 18.437 67.1656 18.437C68.2493 18.437 68.7331 19.0058 68.7331 20.2845V20.3282H65.5982Z" fill="#2C2C2C"/>
<path d="M77.6976 2.79136C77.417 2.59688 77.0348 2.66008 76.8413 2.94207L75.6076 4.69722C75.1529 4.42981 74.5965 4.29368 73.9386 4.29368C72.9323 4.29368 72.1534 4.6097 71.6309 5.23203C71.1762 5.77656 70.9343 6.54474 70.9343 7.45392V8.8979C70.9343 9.6126 71.0843 10.2349 71.3697 10.7357L70.1409 12.486C69.9474 12.7631 70.0103 13.1521 70.2909 13.3465C70.3973 13.4243 70.5231 13.4584 70.644 13.4584C70.8375 13.4584 71.0262 13.366 71.1472 13.1958L72.2405 11.6351C72.7001 11.9123 73.271 12.0581 73.9386 12.0581C74.9449 12.0581 75.7237 11.7421 76.2462 11.1149C76.701 10.5704 76.9429 9.80221 76.9429 8.8979V7.45392C76.9429 6.72463 76.7881 6.08286 76.493 5.58208L77.8475 3.65191C78.0459 3.37478 77.9782 2.99069 77.6976 2.79136ZM75.5641 7.45878V8.90276C75.5641 10.128 75.0319 10.7211 73.9386 10.7211C73.5709 10.7211 73.271 10.653 73.0291 10.5218L75.5254 6.96286C75.5496 7.11358 75.5641 7.27889 75.5641 7.45878ZM72.3131 8.90762V7.46364C72.3131 6.23844 72.8452 5.64529 73.9386 5.64529C74.2869 5.64529 74.582 5.70849 74.8191 5.83004L72.3421 9.35492C72.3228 9.21392 72.3131 9.06806 72.3131 8.90762Z" fill="#2C2C2C"/>
</svg>
